<?xml version="1.0" encoding="utf-8" standalone="no"?><!DOCTYPE svg PUBLIC "-//W3C//DTD SVG 20010904//EN" "http://www.w3.org/TR/2001/REC-SVG-20010904/DTD/svg10.dtd"><svg xmlns="http://www.w3.org/2000/svg" width="917" height="792" xmlns:xlink="http://www.w3.org/1999/xlink"><source><![CDATA[Title: Alta estudiante
participant Usuario
participant Formulario
participant App
App->LocalStorage: Pide datos iniciales
LocalStorage-->App: Recibe datos si los hay
App->Lista HTML: Carga la lista en el HTML
Usuario->Formulario: Ingresa nombre
Note over Formulario: Valida nombre
Usuario->Formulario: Ingresa dni
Formulario->App: Busca DNI
App-->Formulario: Avísa si existe el DNI
Note over Formulario: Habilita botón
Formulario-->Usuario: Muestra validación
Usuario->Formulario: Apreta botón agregar
Formulario->App: Envía nombre y DNI
App->Lista HTML: Agrega el nodo
App->LocalStorage: Actualiza los cambios]]></source><desc>Alta estudiante</desc><defs><marker viewBox="0 0 5 5" markerWidth="5" markerHeight="5" orient="auto" refX="5" refY="2.5" id="markerArrowBlock"><path d="M 0 0 L 5 2.5 L 0 5 z"></path></marker><marker viewBox="0 0 9.6 16" markerWidth="4" markerHeight="16" orient="auto" refX="9.6" refY="8" id="markerArrowOpen"><path d="M 9.6,8 1.92,16 0,13.7 5.76,8 0,2.286 1.92,0 9.6,8 z"></path></marker></defs><g class="title"><path d="M10,10C90.6,15.5 85.3,4.5 148.5,10.0C149.8,34.7 147.2,37.3 148.5,42.5C107.6,37.0 76.8,48.0 10.0,42.5C11.3,19.6 8.7,33.1 10.0,10.0" stroke="#000000" fill="#ffffff" style="stroke-width: 2;"></path><text x="15" y="29" style="font-size: 16px; font-family: danielbd;"><tspan x="15">Alta estudiante</tspan></text></g><g class="actor"><path d="M10,52.5C76.2,49.0 64.2,56.0 97.7,52.5C96.0,77.2 99.4,69.5 97.7,95.0C56.0,91.5 83.7,98.5 10.0,95.0C8.3,88.2 11.7,64.0 10.0,52.5" stroke="#000000" fill="#ffffff" style="stroke-width: 2;"></path><text x="20" y="76.5" style="font-size: 16px; font-family: danielbd;"><tspan x="20">Usuario</tspan></text></g><g class="actor"><path d="M10,730C31.0,733.5 24.0,726.5 97.7,730.0C96.0,763.2 99.4,759.6 97.7,772.5C24.0,769.0 31.0,776.0 10.0,772.5C8.3,762.3 11.7,743.0 10.0,730.0" stroke="#000000" fill="#ffffff" style="stroke-width: 2;"></path><text x="20" y="754" style="font-size: 16px; font-family: danielbd;"><tspan x="20">Usuario</tspan></text></g><path d="M53.9,95.0C79.3,308.4 28.5,628.4 53.9,730.0" stroke="#000000" fill="none" style="stroke-width: 2;"></path><g class="actor"><path d="M201.2265625,52.5C285.5,57.1 288.1,47.9 315.5,52.5C317.2,62.7 313.8,69.4 315.5,95.0C288.1,99.6 297.2,90.4 201.2,95.0C199.5,59.3 202.9,81.1 201.2,52.5" stroke="#000000" fill="#ffffff" style="stroke-width: 2;"></path><text x="211.2265625" y="76.5" style="font-size: 16px; font-family: danielbd;"><tspan x="211.2265625">Formulario</tspan></text></g><g class="actor"><path d="M201.2265625,730C241.1,734.6 248.5,725.4 315.5,730.0C313.8,739.8 317.2,765.7 315.5,772.5C297.2,767.9 219.5,777.1 201.2,772.5C202.9,759.8 199.5,740.2 201.2,730.0" stroke="#000000" fill="#ffffff" style="stroke-width: 2;"></path><text x="211.2265625" y="754" style="font-size: 16px; font-family: danielbd;"><tspan x="211.2265625">Formulario</tspan></text></g><path d="M258.4,95.0C283.8,628.4 233.0,196.6 258.4,730.0" stroke="#000000" fill="none" style="stroke-width: 2;"></path><g class="actor"><path d="M432.53125,52.5C479.1,50.3 444.8,54.7 487.9,52.5C486.2,84.8 489.6,76.5 487.9,95.0C471.2,97.2 455.3,92.8 432.5,95.0C430.8,88.2 434.2,62.3 432.5,52.5" stroke="#000000" fill="#ffffff" style="stroke-width: 2;"></path><text x="442.53125" y="76.5" style="font-size: 16px; font-family: danielbd;"><tspan x="442.53125">App</tspan></text></g><g class="actor"><path d="M432.53125,730C479.1,732.2 450.6,727.8 487.9,730.0C489.6,757.4 486.2,764.9 487.9,772.5C444.5,774.7 445.8,770.3 432.5,772.5C434.2,743.2 430.8,742.5 432.5,730.0" stroke="#000000" fill="#ffffff" style="stroke-width: 2;"></path><text x="442.53125" y="754" style="font-size: 16px; font-family: danielbd;"><tspan x="442.53125">App</tspan></text></g><path d="M460.2,95.0C485.6,577.6 434.8,247.4 460.2,730.0" stroke="#000000" fill="none" style="stroke-width: 2;"></path><g class="actor"><path d="M609.4765625,52.5C692.4,47.3 630.4,57.7 740.0,52.5C741.7,84.8 738.3,64.2 740.0,95.0C678.2,89.8 708.7,100.2 609.5,95.0C611.2,62.7 607.8,77.3 609.5,52.5" stroke="#000000" fill="#ffffff" style="stroke-width: 2;"></path><text x="619.4765625" y="76.5" style="font-size: 16px; font-family: danielbd;"><tspan x="619.4765625">LocalStorage</tspan></text></g><g class="actor"><path d="M609.4765625,730C630.4,724.8 689.2,735.2 740.0,730.0C738.3,741.4 741.7,744.6 740.0,772.5C646.9,767.3 662.0,777.7 609.5,772.5C607.8,746.7 611.2,748.8 609.5,730.0" stroke="#000000" fill="#ffffff" style="stroke-width: 2;"></path><text x="619.4765625" y="754" style="font-size: 16px; font-family: danielbd;"><tspan x="619.4765625">LocalStorage</tspan></text></g><path d="M674.8,95.0C700.2,196.6 649.4,380.4 674.8,730.0" stroke="#000000" fill="none" style="stroke-width: 2;"></path><g class="actor"><path d="M760.0390625,52.5C847.8,47.4 824.4,57.6 887.3,52.5C889.0,59.3 885.6,85.6 887.3,95.0C790.6,89.9 856.1,100.1 760.0,95.0C761.7,88.2 758.3,64.2 760.0,52.5" stroke="#000000" fill="#ffffff" style="stroke-width: 2;"></path><text x="770.0390625" y="76.5" style="font-size: 16px; font-family: danielbd;"><tspan x="770.0390625">Lista HTML</tspan></text></g><g class="actor"><path d="M760.0390625,730C802.7,735.1 780.4,724.9 887.3,730.0C889.0,750.3 885.6,741.8 887.3,772.5C849.9,777.6 802.7,767.4 760.0,772.5C758.3,764.7 761.7,745.1 760.0,730.0" stroke="#000000" fill="#ffffff" style="stroke-width: 2;"></path><text x="770.0390625" y="754" style="font-size: 16px; font-family: danielbd;"><tspan x="770.0390625">Lista HTML</tspan></text></g><path d="M823.7,95.0C849.1,196.6 798.3,628.4 823.7,730.0" stroke="#000000" fill="none" style="stroke-width: 2;"></path><g class="signal"><text x="489.640625" y="122.75" style="font-size: 16px; font-family: danielbd;"><tspan x="489.640625">Pide datos iniciales</tspan></text><path d="M460.2,137.5C511.7,128.9 526.0,146.1 674.8,137.5" stroke="#000000" fill="none" style="stroke-width: 2; marker-end: url(&quot;#markerArrowBlock&quot;);"></path></g><g class="signal"><text x="470.2265625" y="165.25" style="font-size: 16px; font-family: danielbd;"><tspan x="470.2265625">Recibe datos si los hay</tspan></text><path d="M674.8,180.0C563.1,188.6 623.3,171.4 460.2,180.0" stroke="#000000" fill="none" style="stroke-width: 2; stroke-dasharray: 6, 2; marker-end: url(&quot;#markerArrowBlock&quot;);"></path></g><g class="signal"><text x="529.68359375" y="207.75" style="font-size: 16px; font-family: danielbd;"><tspan x="529.68359375">Carga la lista en el HTML</tspan></text><path d="M460.2,222.5C712.4,208.0 648.8,237.0 823.7,222.5" stroke="#000000" fill="none" style="stroke-width: 2; marker-end: url(&quot;#markerArrowBlock&quot;);"></path></g><g class="signal"><text x="92.7734375" y="250.25" style="font-size: 16px; font-family: danielbd;"><tspan x="92.7734375">Ingresa nombre</tspan></text><path d="M53.9,265.0C209.3,273.2 225.7,256.8 258.4,265.0" stroke="#000000" fill="none" style="stroke-width: 2; marker-end: url(&quot;#markerArrowBlock&quot;);"></path></g><g class="note"><path d="M194.1171875,285C271.0,290.1 258.2,279.9 322.6,285.0C321.3,298.0 323.9,304.6 322.6,317.5C298.0,312.4 275.2,322.6 194.1,317.5C195.4,304.2 192.8,309.5 194.1,285.0" stroke="#000000" fill="#ffffff" style="stroke-width: 2;"></path><text x="199.1171875" y="304" style="font-size: 16px; font-family: danielbd;"><tspan x="199.1171875">Valida nombre</tspan></text></g><g class="signal"><text x="112.1171875" y="345.25" style="font-size: 16px; font-family: danielbd;"><tspan x="112.1171875">Ingresa dni</tspan></text><path d="M53.9,360.0C196.9,368.2 102.9,351.8 258.4,360.0" stroke="#000000" fill="none" style="stroke-width: 2; marker-end: url(&quot;#markerArrowBlock&quot;);"></path></g><g class="signal"><text x="311.8828125" y="387.75" style="font-size: 16px; font-family: danielbd;"><tspan x="311.8828125">Busca DNI</tspan></text><path d="M258.4,402.5C296.9,394.4 392.2,410.6 460.2,402.5" stroke="#000000" fill="none" style="stroke-width: 2; marker-end: url(&quot;#markerArrowBlock&quot;);"></path></g><g class="signal"><text x="268.3828125" y="430.25" style="font-size: 16px; font-family: danielbd;"><tspan x="268.3828125">Avísa si existe el DNI</tspan></text><path d="M460.2,445.0C328.7,436.9 379.2,453.1 258.4,445.0" stroke="#000000" fill="none" style="stroke-width: 2; stroke-dasharray: 6, 2; marker-end: url(&quot;#markerArrowBlock&quot;);"></path></g><g class="note"><path d="M196.609375,465C300.4,460.1 290.5,469.9 320.2,465.0C318.9,486.4 321.5,470.2 320.2,497.5C281.8,492.6 300.4,502.4 196.6,497.5C195.3,483.0 197.9,489.7 196.6,465.0" stroke="#000000" fill="#ffffff" style="stroke-width: 2;"></path><text x="201.609375" y="484" style="font-size: 16px; font-family: danielbd;"><tspan x="201.609375">Habilita botón</tspan></text></g><g class="signal"><text x="78.890625" y="525.25" style="font-size: 16px; font-family: danielbd;"><tspan x="78.890625">Muestra validación</tspan></text><path d="M258.4,540.0C102.9,548.2 196.6,531.8 53.9,540.0" stroke="#000000" fill="none" style="stroke-width: 2; stroke-dasharray: 6, 2; marker-end: url(&quot;#markerArrowBlock&quot;);"></path></g><g class="signal"><text x="63.8515625" y="567.75" style="font-size: 16px; font-family: danielbd;"><tspan x="63.8515625">Apreta botón agregar</tspan></text><path d="M53.9,582.5C126.8,590.7 209.3,574.3 258.4,582.5" stroke="#000000" fill="none" style="stroke-width: 2; marker-end: url(&quot;#markerArrowBlock&quot;);"></path></g><g class="signal"><text x="270.421875" y="610.25" style="font-size: 16px; font-family: danielbd;"><tspan x="270.421875">Envía nombre y DNI</tspan></text><path d="M258.4,625.0C406.2,616.9 411.2,633.1 460.2,625.0" stroke="#000000" fill="none" style="stroke-width: 2; marker-end: url(&quot;#markerArrowBlock&quot;);"></path></g><g class="signal"><text x="579.26171875" y="652.75" style="font-size: 16px; font-family: danielbd;"><tspan x="579.26171875">Agrega el nodo</tspan></text><path d="M460.2,667.5C532.4,653.0 547.4,682.0 823.7,667.5" stroke="#000000" fill="none" style="stroke-width: 2; marker-end: url(&quot;#markerArrowBlock&quot;);"></path></g><g class="signal"><text x="476.890625" y="695.25" style="font-size: 16px; font-family: danielbd;"><tspan x="476.890625">Actualiza los cambios</tspan></text><path d="M460.2,710.0C623.3,718.6 614.8,701.4 674.8,710.0" stroke="#000000" fill="none" style="stroke-width: 2; marker-end: url(&quot;#markerArrowBlock&quot;);"></path></g></svg>