<?xml version="1.0" encoding="utf-8" standalone="no"?><!DOCTYPE svg PUBLIC "-//W3C//DTD SVG 20010904//EN" "http://www.w3.org/TR/2001/REC-SVG-20010904/DTD/svg10.dtd"><svg xmlns="http://www.w3.org/2000/svg" width="865" height="517" xmlns:xlink="http://www.w3.org/1999/xlink"><source><![CDATA[Title: Búsqueda estudiante
participant Usuario
participant Formulario
participant App
App->LocalStorage: Pide datos iniciales
LocalStorage-->App: Recibe datos si los hay
App->Lista HTML: Carga la lista en el HTML
Usuario->Formulario: Ingresa nombre o apellido
Usuario->Formulario: Apreta botón buscar
Formulario->App: Envía texto
App->Lista HTML: Limpia la lista
App->Lista HTML: Agrega el nodo



]]></source><desc>Búsqueda estudiante</desc><defs><marker viewBox="0 0 5 5" markerWidth="5" markerHeight="5" orient="auto" refX="5" refY="2.5" id="markerArrowBlock"><path d="M 0 0 L 5 2.5 L 0 5 z"></path></marker><marker viewBox="0 0 9.6 16" markerWidth="4" markerHeight="16" orient="auto" refX="9.6" refY="8" id="markerArrowOpen"><path d="M 9.6,8 1.92,16 0,13.7 5.76,8 0,2.286 1.92,0 9.6,8 z"></path></marker></defs><g class="title"><path d="M10,10C126.2,17.5 52.2,2.5 198.0,10.0C199.3,33.1 196.7,25.5 198.0,42.5C145.9,35.0 152.9,50.0 10.0,42.5C11.3,23.9 8.7,31.7 10.0,10.0" stroke="#000000" fill="#ffffff" style="stroke-width: 2;"></path><text x="15" y="29" style="font-size: 16px; font-family: danielbd;"><tspan x="15">Búsqueda estudiante</tspan></text></g><g class="actor"><path d="M10,52.5C31.0,56.0 61.0,49.0 97.7,52.5C99.4,76.0 96.0,65.3 97.7,95.0C61.6,91.5 56.3,98.5 10.0,95.0C8.3,84.8 11.7,70.3 10.0,52.5" stroke="#000000" fill="#ffffff" style="stroke-width: 2;"></path><text x="20" y="76.5" style="font-size: 16px; font-family: danielbd;"><tspan x="20">Usuario</tspan></text></g><g class="actor"><path d="M10,455C74.5,451.5 44.4,458.5 97.7,455.0C99.4,461.8 96.0,485.3 97.7,497.5C63.6,501.0 31.0,494.0 10.0,497.5C8.3,465.2 11.7,470.0 10.0,455.0" stroke="#000000" fill="#ffffff" style="stroke-width: 2;"></path><text x="20" y="479" style="font-size: 16px; font-family: danielbd;"><tspan x="20">Usuario</tspan></text></g><path d="M53.9,95.0C39.5,152.6 68.3,320.8 53.9,455.0" stroke="#000000" fill="none" style="stroke-width: 2;"></path><g class="actor"><path d="M231.1953125,52.5C299.1,57.1 318.1,47.9 345.5,52.5C343.8,86.4 347.2,69.9 345.5,95.0C327.2,90.4 259.5,99.6 231.2,95.0C232.9,59.3 229.5,62.7 231.2,52.5" stroke="#000000" fill="#ffffff" style="stroke-width: 2;"></path><text x="241.1953125" y="76.5" style="font-size: 16px; font-family: danielbd;"><tspan x="241.1953125">Formulario</tspan></text></g><g class="actor"><path d="M231.1953125,455C249.5,459.6 258.6,450.4 345.5,455.0C343.8,476.6 347.2,486.3 345.5,497.5C318.0,502.1 281.1,492.9 231.2,497.5C229.5,490.7 232.9,461.8 231.2,455.0" stroke="#000000" fill="#ffffff" style="stroke-width: 2;"></path><text x="241.1953125" y="479" style="font-size: 16px; font-family: danielbd;"><tspan x="241.1953125">Formulario</tspan></text></g><path d="M288.4,95.0C302.8,182.2 274.0,290.0 288.4,455.0" stroke="#000000" fill="none" style="stroke-width: 2;"></path><g class="actor"><path d="M381.03125,52.5C423.1,50.3 411.2,54.7 436.4,52.5C438.1,73.8 434.7,86.0 436.4,95.0C423.1,97.2 410.3,92.8 381.0,95.0C382.7,76.3 379.3,84.3 381.0,52.5" stroke="#000000" fill="#ffffff" style="stroke-width: 2;"></path><text x="391.03125" y="76.5" style="font-size: 16px; font-family: danielbd;"><tspan x="391.03125">App</tspan></text></g><g class="actor"><path d="M381.03125,455C396.2,452.8 424.2,457.2 436.4,455.0C434.7,470.1 438.1,473.0 436.4,497.5C399.6,495.3 394.3,499.7 381.0,497.5C382.7,465.5 379.3,483.5 381.0,455.0" stroke="#000000" fill="#ffffff" style="stroke-width: 2;"></path><text x="391.03125" y="479" style="font-size: 16px; font-family: danielbd;"><tspan x="391.03125">App</tspan></text></g><path d="M408.7,95.0C394.3,272.5 423.1,273.1 408.7,455.0" stroke="#000000" fill="none" style="stroke-width: 2;"></path><g class="actor"><path d="M557.9765625,52.5C589.3,47.3 607.1,57.7 688.5,52.5C690.2,78.6 686.8,69.0 688.5,95.0C591.7,100.2 652.2,89.8 558.0,95.0C556.3,72.0 559.7,62.7 558.0,52.5" stroke="#000000" fill="#ffffff" style="stroke-width: 2;"></path><text x="567.9765625" y="76.5" style="font-size: 16px; font-family: danielbd;"><tspan x="567.9765625">LocalStorage</tspan></text></g><g class="actor"><path d="M557.9765625,455C618.2,460.2 657.2,449.8 688.5,455.0C686.8,490.7 690.2,474.6 688.5,497.5C619.1,502.7 589.3,492.3 558.0,497.5C559.7,490.7 556.3,483.2 558.0,455.0" stroke="#000000" fill="#ffffff" style="stroke-width: 2;"></path><text x="567.9765625" y="479" style="font-size: 16px; font-family: danielbd;"><tspan x="567.9765625">LocalStorage</tspan></text></g><path d="M623.3,95.0C608.9,368.6 637.7,327.0 623.3,455.0" stroke="#000000" fill="none" style="stroke-width: 2;"></path><g class="actor"><path d="M708.5390625,52.5C749.2,57.6 759.1,47.4 835.8,52.5C834.1,80.2 837.5,59.3 835.8,95.0C794.3,100.1 785.5,89.9 708.5,95.0C706.8,69.0 710.2,87.8 708.5,52.5" stroke="#000000" fill="#ffffff" style="stroke-width: 2;"></path><text x="718.5390625" y="76.5" style="font-size: 16px; font-family: danielbd;"><tspan x="718.5390625">Lista HTML</tspan></text></g><g class="actor"><path d="M708.5390625,455C740.6,460.1 739.1,449.9 835.8,455.0C834.1,474.3 837.5,461.8 835.8,497.5C765.6,492.4 728.9,502.6 708.5,497.5C710.2,479.3 706.8,480.5 708.5,455.0" stroke="#000000" fill="#ffffff" style="stroke-width: 2;"></path><text x="718.5390625" y="479" style="font-size: 16px; font-family: danielbd;"><tspan x="718.5390625">Lista HTML</tspan></text></g><path d="M772.2,95.0C757.8,270.4 786.6,181.4 772.2,455.0" stroke="#000000" fill="none" style="stroke-width: 2;"></path><g class="signal"><text x="438.140625" y="122.75" style="font-size: 16px; font-family: danielbd;"><tspan x="438.140625">Pide datos iniciales</tspan></text><path d="M408.7,137.5C443.1,146.1 588.9,128.9 623.3,137.5" stroke="#000000" fill="none" style="stroke-width: 2; marker-end: url(&quot;#markerArrowBlock&quot;);"></path></g><g class="signal"><text x="418.7265625" y="165.25" style="font-size: 16px; font-family: danielbd;"><tspan x="418.7265625">Recibe datos si los hay</tspan></text><path d="M623.3,180.0C482.7,188.6 516.6,171.4 408.7,180.0" stroke="#000000" fill="none" style="stroke-width: 2; stroke-dasharray: 6, 2; marker-end: url(&quot;#markerArrowBlock&quot;);"></path></g><g class="signal"><text x="478.18359375" y="207.75" style="font-size: 16px; font-family: danielbd;"><tspan x="478.18359375">Carga la lista en el HTML</tspan></text><path d="M408.7,222.5C714.0,208.0 642.4,237.0 772.2,222.5" stroke="#000000" fill="none" style="stroke-width: 2; marker-end: url(&quot;#markerArrowBlock&quot;);"></path></g><g class="signal"><text x="63.8515625" y="250.25" style="font-size: 16px; font-family: danielbd;"><tspan x="63.8515625">Ingresa nombre o apellido</tspan></text><path d="M53.9,265.0C173.4,274.4 165.2,255.6 288.4,265.0" stroke="#000000" fill="none" style="stroke-width: 2; marker-end: url(&quot;#markerArrowBlock&quot;);"></path></g><g class="signal"><text x="82.03125" y="292.75" style="font-size: 16px; font-family: danielbd;"><tspan x="82.03125">Apreta botón buscar</tspan></text><path d="M53.9,307.5C112.5,298.1 91.4,316.9 288.4,307.5" stroke="#000000" fill="none" style="stroke-width: 2; marker-end: url(&quot;#markerArrowBlock&quot;);"></path></g><g class="signal"><text x="298.3515625" y="335.25" style="font-size: 16px; font-family: danielbd;"><tspan x="298.3515625">Envía texto</tspan></text><path d="M288.4,350.0C377.6,354.8 341.8,345.2 408.7,350.0" stroke="#000000" fill="none" style="stroke-width: 2; marker-end: url(&quot;#markerArrowBlock&quot;);"></path></g><g class="signal"><text x="529.78515625" y="377.75" style="font-size: 16px; font-family: danielbd;"><tspan x="529.78515625">Limpia la lista</tspan></text><path d="M408.7,392.5C466.9,378.0 610.8,407.0 772.2,392.5" stroke="#000000" fill="none" style="stroke-width: 2; marker-end: url(&quot;#markerArrowBlock&quot;);"></path></g><g class="signal"><text x="527.76171875" y="420.25" style="font-size: 16px; font-family: danielbd;"><tspan x="527.76171875">Agrega el nodo</tspan></text><path d="M408.7,435.0C684.9,420.5 495.9,449.5 772.2,435.0" stroke="#000000" fill="none" style="stroke-width: 2; marker-end: url(&quot;#markerArrowBlock&quot;);"></path></g></svg>