<?xml version="1.0" encoding="utf-8" standalone="no"?><!DOCTYPE svg PUBLIC "-//W3C//DTD SVG 20010904//EN" "http://www.w3.org/TR/2001/REC-SVG-20010904/DTD/svg10.dtd"><svg xmlns="http://www.w3.org/2000/svg" width="463" height="262" xmlns:xlink="http://www.w3.org/1999/xlink"><source><![CDATA[Title: Home
participant Usuario
participant Router
participant Layout
Usuario->Router: a:link #
Router->Layout: .load() partial/home.html]]></source><desc>Home</desc><defs><marker viewBox="0 0 5 5" markerWidth="5" markerHeight="5" orient="auto" refX="5" refY="2.5" id="markerArrowBlock"><path d="M 0 0 L 5 2.5 L 0 5 z"></path></marker><marker viewBox="0 0 9.6 16" markerWidth="4" markerHeight="16" orient="auto" refX="9.6" refY="8" id="markerArrowOpen"><path d="M 9.6,8 1.92,16 0,13.7 5.76,8 0,2.286 1.92,0 9.6,8 z"></path></marker></defs><g class="title"><path d="M10,10C19.1,7.7 53.6,12.3 67.0,10.0C68.3,26.8 65.7,36.5 67.0,42.5C23.7,40.2 38.8,44.8 10.0,42.5C11.3,31.6 8.7,34.7 10.0,10.0" stroke="#000000" fill="#ffffff" style="stroke-width: 2;"></path><text x="15" y="29" style="font-size: 16px; font-family: danielbd;"><tspan x="15">Home</tspan></text></g><g class="actor"><path d="M10,52.5C83.7,56.0 76.7,49.0 97.7,52.5C99.4,71.1 96.0,62.7 97.7,95.0C67.4,98.5 76.7,91.5 10.0,95.0C11.7,69.6 8.3,88.2 10.0,52.5" stroke="#000000" fill="#ffffff" style="stroke-width: 2;"></path><text x="20" y="76.5" style="font-size: 16px; font-family: danielbd;"><tspan x="20">Usuario</tspan></text></g><g class="actor"><path d="M10,200C69.2,196.5 75.8,203.5 97.7,200.0C96.0,231.3 99.4,235.7 97.7,242.5C42.9,246.0 52.7,239.0 10.0,242.5C11.7,210.2 8.3,223.7 10.0,200.0" stroke="#000000" fill="#ffffff" style="stroke-width: 2;"></path><text x="20" y="224" style="font-size: 16px; font-family: danielbd;"><tspan x="20">Usuario</tspan></text></g><path d="M53.9,95.0C58.1,153.4 49.7,145.6 53.9,200.0" stroke="#000000" fill="none" style="stroke-width: 2;"></path><g class="actor"><path d="M117.703125,52.5C143.9,49.2 186.0,55.8 199.0,52.5C197.3,88.2 200.7,84.8 199.0,95.0C137.2,98.3 179.5,91.7 117.7,95.0C119.4,59.3 116.0,62.7 117.7,52.5" stroke="#000000" fill="#ffffff" style="stroke-width: 2;"></path><text x="127.703125" y="76.5" style="font-size: 16px; font-family: danielbd;"><tspan x="127.703125">Router</tspan></text></g><g class="actor"><path d="M117.703125,200C169.5,203.3 137.2,196.7 199.0,200.0C197.3,218.4 200.7,214.0 199.0,242.5C179.5,239.2 137.2,245.8 117.7,242.5C119.4,210.2 116.0,206.8 117.7,200.0" stroke="#000000" fill="#ffffff" style="stroke-width: 2;"></path><text x="127.703125" y="224" style="font-size: 16px; font-family: danielbd;"><tspan x="127.703125">Router</tspan></text></g><path d="M158.3,95.0C154.1,173.8 162.5,160.2 158.3,200.0" stroke="#000000" fill="none" style="stroke-width: 2;"></path><g class="actor"><path d="M350.078125,52.5C376.0,49.2 412.7,55.8 433.4,52.5C431.7,63.7 435.1,76.2 433.4,95.0C386.5,98.3 394.8,91.7 350.1,95.0C351.8,78.4 348.4,81.4 350.1,52.5" stroke="#000000" fill="#ffffff" style="stroke-width: 2;"></path><text x="360.078125" y="76.5" style="font-size: 16px; font-family: danielbd;"><tspan x="360.078125">Layout</tspan></text></g><g class="actor"><path d="M350.078125,200C370.1,203.3 413.4,196.7 433.4,200.0C435.1,235.7 431.7,217.0 433.4,242.5C363.4,245.8 370.1,239.2 350.1,242.5C351.8,217.6 348.4,229.1 350.1,200.0" stroke="#000000" fill="#ffffff" style="stroke-width: 2;"></path><text x="360.078125" y="224" style="font-size: 16px; font-family: danielbd;"><tspan x="360.078125">Layout</tspan></text></g><path d="M391.7,95.0C395.9,178.3 387.5,136.2 391.7,200.0" stroke="#000000" fill="none" style="stroke-width: 2;"></path><g class="signal"><text x="75.609375" y="122.75" style="font-size: 16px; font-family: danielbd;"><tspan x="75.609375">a:link #</tspan></text><path d="M53.9,137.5C141.6,133.3 128.5,141.7 158.3,137.5" stroke="#000000" fill="none" style="stroke-width: 2; marker-end: url(&quot;#markerArrowBlock&quot;);"></path></g><g class="signal"><text x="168.3359375" y="165.25" style="font-size: 16px; font-family: danielbd;"><tspan x="168.3359375">.load() partial/home.html</tspan></text><path d="M158.3,180.0C354.4,189.3 195.7,170.7 391.7,180.0" stroke="#000000" fill="none" style="stroke-width: 2; marker-end: url(&quot;#markerArrowBlock&quot;);"></path></g></svg>