<?xml version="1.0" encoding="utf-8" standalone="no"?><!DOCTYPE svg PUBLIC "-//W3C//DTD SVG 20010904//EN" "http://www.w3.org/TR/2001/REC-SVG-20010904/DTD/svg10.dtd"><svg xmlns="http://www.w3.org/2000/svg" width="943" height="602" xmlns:xlink="http://www.w3.org/1999/xlink"><source><![CDATA[Title: Guardado
participant Usuario
participant Router
participant Layout
participant Local Storage ctr
participant LS
Usuario->Router: a:link #/local-storage
Router->Layout: .load() partial/local-storage.html
Router->Local Storage ctr: .load() localStorgaeController.js
Local Storage ctr->LS: getItem(peopleList)
LS-->Local Storage ctr: people array
Local Storage ctr->Layout: load people table
Usuario->Layout: click delete button
Layout->Local Storage ctr: splice(index,1)
Local Storage ctr->LS: setItem(peopleList)
Local Storage ctr->Layout: removeItem()]]></source><desc>Guardado</desc><defs><marker viewBox="0 0 5 5" markerWidth="5" markerHeight="5" orient="auto" refX="5" refY="2.5" id="markerArrowBlock"><path d="M 0 0 L 5 2.5 L 0 5 z"></path></marker><marker viewBox="0 0 9.6 16" markerWidth="4" markerHeight="16" orient="auto" refX="9.6" refY="8" id="markerArrowOpen"><path d="M 9.6,8 1.92,16 0,13.7 5.76,8 0,2.286 1.92,0 9.6,8 z"></path></marker></defs><g class="title"><path d="M10,10C25.9,6.0 92.7,14.0 109.1,10.0C110.4,27.4 107.8,34.7 109.1,42.5C25.9,38.5 91.7,46.5 10.0,42.5C8.7,32.8 11.3,29.1 10.0,10.0" stroke="#000000" fill="#ffffff" style="stroke-width: 2;"></path><text x="15" y="29" style="font-size: 16px; font-family: danielbd;"><tspan x="15">Guardado</tspan></text></g><g class="actor"><path d="M10,52.5C83.7,56.0 48.9,49.0 97.7,52.5C96.0,62.7 99.4,72.1 97.7,95.0C40.3,91.5 43.7,98.5 10.0,95.0C8.3,70.0 11.7,62.7 10.0,52.5" stroke="#000000" fill="#ffffff" style="stroke-width: 2;"></path><text x="20" y="76.5" style="font-size: 16px; font-family: danielbd;"><tspan x="20">Usuario</tspan></text></g><g class="actor"><path d="M10,540C83.7,543.5 30.8,536.5 97.7,540.0C96.0,572.3 99.4,571.1 97.7,582.5C56.1,586.0 46.8,579.0 10.0,582.5C8.3,575.7 11.7,572.3 10.0,540.0" stroke="#000000" fill="#ffffff" style="stroke-width: 2;"></path><text x="20" y="564" style="font-size: 16px; font-family: danielbd;"><tspan x="20">Usuario</tspan></text></g><path d="M53.9,95.0C71.7,468.8 36.1,433.2 53.9,540.0" stroke="#000000" fill="none" style="stroke-width: 2;"></path><g class="actor"><path d="M210.265625,52.5C243.9,55.8 278.5,49.2 291.5,52.5C289.8,61.3 293.2,79.4 291.5,95.0C234.3,91.7 256.9,98.3 210.3,95.0C208.6,72.2 212.0,62.7 210.3,52.5" stroke="#000000" fill="#ffffff" style="stroke-width: 2;"></path><text x="220.265625" y="76.5" style="font-size: 16px; font-family: danielbd;"><tspan x="220.265625">Router</tspan></text></g><g class="actor"><path d="M210.265625,540C249.5,536.7 278.5,543.3 291.5,540.0C289.8,546.8 293.2,572.4 291.5,582.5C246.1,579.2 266.5,585.8 210.3,582.5C208.6,546.8 212.0,575.7 210.3,540.0" stroke="#000000" fill="#ffffff" style="stroke-width: 2;"></path><text x="220.265625" y="564" style="font-size: 16px; font-family: danielbd;"><tspan x="220.265625">Router</tspan></text></g><path d="M250.9,95.0C233.1,201.8 268.7,355.3 250.9,540.0" stroke="#000000" fill="none" style="stroke-width: 2;"></path><g class="actor"><path d="M501.140625,52.5C523.7,55.8 514.7,49.2 584.5,52.5C586.2,75.9 582.8,59.3 584.5,95.0C523.3,98.3 564.5,91.7 501.1,95.0C499.4,66.4 502.8,72.1 501.1,52.5" stroke="#000000" fill="#ffffff" style="stroke-width: 2;"></path><text x="511.140625" y="76.5" style="font-size: 16px; font-family: danielbd;"><tspan x="511.140625">Layout</tspan></text></g><g class="actor"><path d="M501.140625,540C569.8,536.7 515.3,543.3 584.5,540.0C586.2,562.5 582.8,571.3 584.5,582.5C541.0,585.8 546.3,579.2 501.1,582.5C499.4,572.6 502.8,572.3 501.1,540.0" stroke="#000000" fill="#ffffff" style="stroke-width: 2;"></path><text x="511.140625" y="564" style="font-size: 16px; font-family: danielbd;"><tspan x="511.140625">Layout</tspan></text></g><path d="M542.8,95.0C525.0,433.2 560.6,460.2 542.8,540.0" stroke="#000000" fill="none" style="stroke-width: 2;"></path><g class="actor"><path d="M618.7734375,52.5C691.2,45.5 690.2,59.5 793.4,52.5C795.1,84.8 791.7,76.4 793.4,95.0C692.6,88.0 691.7,102.0 618.8,95.0C620.5,67.2 617.1,71.4 618.8,52.5" stroke="#000000" fill="#ffffff" style="stroke-width: 2;"></path><text x="628.7734375" y="76.5" style="font-size: 16px; font-family: danielbd;"><tspan x="628.7734375">Local Storage ctr</tspan></text></g><g class="actor"><path d="M618.7734375,540C752.5,533.0 733.8,547.0 793.4,540.0C791.7,546.8 795.1,575.7 793.4,582.5C741.8,589.5 660.7,575.5 618.8,582.5C617.1,571.9 620.5,556.8 618.8,540.0" stroke="#000000" fill="#ffffff" style="stroke-width: 2;"></path><text x="628.7734375" y="564" style="font-size: 16px; font-family: danielbd;"><tspan x="628.7734375">Local Storage ctr</tspan></text></g><path d="M706.1,95.0C723.9,201.8 688.3,166.2 706.1,540.0" stroke="#000000" fill="none" style="stroke-width: 2;"></path><g class="actor"><path d="M867.9921875,52.5C875.3,54.3 906.3,50.7 913.6,52.5C911.9,62.7 915.3,82.2 913.6,95.0C892.7,93.2 878.9,96.8 868.0,95.0C869.7,70.1 866.3,62.7 868.0,52.5" stroke="#000000" fill="#ffffff" style="stroke-width: 2;"></path><text x="877.9921875" y="76.5" style="font-size: 16px; font-family: danielbd;"><tspan x="877.9921875">LS</tspan></text></g><g class="actor"><path d="M867.9921875,540C896.6,541.8 902.6,538.2 913.6,540.0C915.3,562.8 911.9,554.1 913.6,582.5C888.6,584.3 902.6,580.7 868.0,582.5C869.7,560.7 866.3,546.8 868.0,540.0" stroke="#000000" fill="#ffffff" style="stroke-width: 2;"></path><text x="877.9921875" y="564" style="font-size: 16px; font-family: danielbd;"><tspan x="877.9921875">LS</tspan></text></g><path d="M890.8,95.0C908.6,312.6 873.0,468.8 890.8,540.0" stroke="#000000" fill="none" style="stroke-width: 2;"></path><g class="signal"><text x="63.8515625" y="122.75" style="font-size: 16px; font-family: danielbd;"><tspan x="63.8515625">a:link #/local-storage</tspan></text><path d="M53.9,137.5C219.4,145.4 132.8,129.6 250.9,137.5" stroke="#000000" fill="none" style="stroke-width: 2; marker-end: url(&quot;#markerArrowBlock&quot;);"></path></g><g class="signal"><text x="260.8984375" y="165.25" style="font-size: 16px; font-family: danielbd;"><tspan x="260.8984375">.load() partial/local-storage.html</tspan></text><path d="M250.9,180.0C496.1,168.3 297.6,191.7 542.8,180.0" stroke="#000000" fill="none" style="stroke-width: 2; marker-end: url(&quot;#markerArrowBlock&quot;);"></path></g><g class="signal"><text x="346.1953125" y="207.75" style="font-size: 16px; font-family: danielbd;"><tspan x="346.1953125">.load() localStorgaeController.js</tspan></text><path d="M250.9,222.5C413.2,240.7 627.7,204.3 706.1,222.5" stroke="#000000" fill="none" style="stroke-width: 2; marker-end: url(&quot;#markerArrowBlock&quot;);"></path></g><g class="signal"><text x="720.1484375" y="250.25" style="font-size: 16px; font-family: danielbd;"><tspan x="716.0859375">getItem(peopleList)</tspan></text><path d="M706.1,265.0C750.4,257.6 793.3,272.4 890.8,265.0" stroke="#000000" fill="none" style="stroke-width: 2; marker-end: url(&quot;#markerArrowBlock&quot;);"></path></g><g class="signal"><text x="744.296875" y="292.75" style="font-size: 16px; font-family: danielbd;"><tspan x="744.296875">people array</tspan></text><path d="M890.8,307.5C833.0,300.1 811.4,314.9 706.1,307.5" stroke="#000000" fill="none" style="stroke-width: 2; stroke-dasharray: 6, 2; marker-end: url(&quot;#markerArrowBlock&quot;);"></path></g><g class="signal"><text x="552.8046875" y="335.25" style="font-size: 16px; font-family: danielbd;"><tspan x="552.8046875">load people table</tspan></text><path d="M706.1,350.0C568.9,343.5 631.5,356.5 542.8,350.0" stroke="#000000" fill="none" style="stroke-width: 2; marker-end: url(&quot;#markerArrowBlock&quot;);"></path></g><g class="signal"><text x="219.640625" y="377.75" style="font-size: 16px; font-family: danielbd;"><tspan x="219.640625">click delete button</tspan></text><path d="M53.9,392.5C211.1,372.9 171.2,412.1 542.8,392.5" stroke="#000000" fill="none" style="stroke-width: 2; marker-end: url(&quot;#markerArrowBlock&quot;);"></path></g><g class="signal"><text x="571.6171875" y="420.25" style="font-size: 16px; font-family: danielbd;"><tspan x="571.6171875">splice(index,1)</tspan></text><path d="M542.8,435.0C636.6,441.5 640.0,428.5 706.1,435.0" stroke="#000000" fill="none" style="stroke-width: 2; marker-end: url(&quot;#markerArrowBlock&quot;);"></path></g><g class="signal"><text x="718.1328125" y="462.75" style="font-size: 16px; font-family: danielbd;"><tspan x="718.1328125">setItem(peopleList)</tspan></text><path d="M706.1,477.5C834.5,470.1 846.5,484.9 890.8,477.5" stroke="#000000" fill="none" style="stroke-width: 2; marker-end: url(&quot;#markerArrowBlock&quot;);"></path></g><g class="signal"><text x="569.765625" y="505.25" style="font-size: 16px; font-family: danielbd;"><tspan x="569.765625">removeItem()</tspan></text><path d="M706.1,520.0C680.0,513.5 574.0,526.5 542.8,520.0" stroke="#000000" fill="none" style="stroke-width: 2; marker-end: url(&quot;#markerArrowBlock&quot;);"></path></g></svg>