<?xml version="1.0" encoding="utf-8" standalone="no"?><!DOCTYPE svg PUBLIC "-//W3C//DTD SVG 20010904//EN" "http://www.w3.org/TR/2001/REC-SVG-20010904/DTD/svg10.dtd"><svg xmlns="http://www.w3.org/2000/svg" width="705" height="432" xmlns:xlink="http://www.w3.org/1999/xlink"><source><![CDATA[Title: Contact
participant Usuario
participant Router
participant Layout
participant Contact ctr
Usuario->Router: a:link #/contact
Router->Layout: .load() partial/contact.html
Router->Contact ctr: .load() contactController.js
Usuario->Layout: Escribe en input
Layout-->Contact ctr: validateFields()
Contact ctr->Layout: showValidation()]]></source><desc>Contact</desc><defs><marker viewBox="0 0 5 5" markerWidth="5" markerHeight="5" orient="auto" refX="5" refY="2.5" id="markerArrowBlock"><path d="M 0 0 L 5 2.5 L 0 5 z"></path></marker><marker viewBox="0 0 9.6 16" markerWidth="4" markerHeight="16" orient="auto" refX="9.6" refY="8" id="markerArrowOpen"><path d="M 9.6,8 1.92,16 0,13.7 5.76,8 0,2.286 1.92,0 9.6,8 z"></path></marker></defs><g class="title"><path d="M10,10C76.8,6.8 53.2,13.2 90.9,10.0C89.6,31.9 92.2,32.4 90.9,42.5C70.9,45.7 38.9,39.3 10.0,42.5C8.7,28.4 11.3,31.4 10.0,10.0" stroke="#000000" fill="#ffffff" style="stroke-width: 2;"></path><text x="15" y="29" style="font-size: 16px; font-family: danielbd;"><tspan x="15">Contact</tspan></text></g><g class="actor"><path d="M10,52.5C76.7,49.0 63.3,56.0 97.7,52.5C99.4,84.8 96.0,75.7 97.7,95.0C41.3,98.5 76.7,91.5 10.0,95.0C8.3,83.7 11.7,69.5 10.0,52.5" stroke="#000000" fill="#ffffff" style="stroke-width: 2;"></path><text x="20" y="76.5" style="font-size: 16px; font-family: danielbd;"><tspan x="20">Usuario</tspan></text></g><g class="actor"><path d="M10,370C31.0,366.5 76.7,373.5 97.7,370.0C96.0,381.8 99.4,380.2 97.7,412.5C41.8,416.0 45.4,409.0 10.0,412.5C8.3,405.7 11.7,394.7 10.0,370.0" stroke="#000000" fill="#ffffff" style="stroke-width: 2;"></path><text x="20" y="394" style="font-size: 16px; font-family: danielbd;"><tspan x="20">Usuario</tspan></text></g><path d="M53.9,95.0C64.9,206.5 42.9,155.7 53.9,370.0" stroke="#000000" fill="none" style="stroke-width: 2;"></path><g class="actor"><path d="M169.21875,52.5C206.2,49.2 188.7,55.8 250.5,52.5C248.8,68.5 252.2,68.5 250.5,95.0C237.3,98.3 228.1,91.7 169.2,95.0C170.9,79.9 167.5,59.3 169.2,52.5" stroke="#000000" fill="#ffffff" style="stroke-width: 2;"></path><text x="179.21875" y="76.5" style="font-size: 16px; font-family: danielbd;"><tspan x="179.21875">Router</tspan></text></g><g class="actor"><path d="M169.21875,370C203.0,373.3 231.0,366.7 250.5,370.0C248.8,402.3 252.2,405.7 250.5,412.5C231.0,409.2 237.5,415.8 169.2,412.5C167.5,405.7 170.9,402.3 169.2,370.0" stroke="#000000" fill="#ffffff" style="stroke-width: 2;"></path><text x="179.21875" y="394" style="font-size: 16px; font-family: danielbd;"><tspan x="179.21875">Router</tspan></text></g><path d="M209.9,95.0C198.9,158.7 220.9,167.0 209.9,370.0" stroke="#000000" fill="none" style="stroke-width: 2;"></path><g class="actor"><path d="M417.921875,52.5C481.3,55.8 437.9,49.2 501.3,52.5C499.6,77.5 502.9,62.7 501.3,95.0C452.0,91.7 479.4,98.3 417.9,95.0C419.6,82.9 416.2,84.3 417.9,52.5" stroke="#000000" fill="#ffffff" style="stroke-width: 2;"></path><text x="427.921875" y="76.5" style="font-size: 16px; font-family: danielbd;"><tspan x="427.921875">Layout</tspan></text></g><g class="actor"><path d="M417.921875,370C459.9,366.7 431.3,373.3 501.3,370.0C502.9,405.7 499.6,398.6 501.3,412.5C431.3,415.8 487.3,409.2 417.9,412.5C416.2,376.8 419.6,405.7 417.9,370.0" stroke="#000000" fill="#ffffff" style="stroke-width: 2;"></path><text x="427.921875" y="394" style="font-size: 16px; font-family: danielbd;"><tspan x="427.921875">Layout</tspan></text></g><path d="M459.6,95.0C448.6,326.0 470.6,304.0 459.6,370.0" stroke="#000000" fill="none" style="stroke-width: 2;"></path><g class="actor"><path d="M549.390625,52.5C614.2,57.5 655.1,47.5 675.3,52.5C677.0,62.7 673.5,59.3 675.3,95.0C579.6,90.0 645.0,100.0 549.4,95.0C547.7,59.3 551.1,70.7 549.4,52.5" stroke="#000000" fill="#ffffff" style="stroke-width: 2;"></path><text x="559.390625" y="76.5" style="font-size: 16px; font-family: danielbd;"><tspan x="559.390625">Contact ctr</tspan></text></g><g class="actor"><path d="M549.390625,370C569.5,375.0 579.6,365.0 675.3,370.0C673.5,380.2 677.0,386.6 675.3,412.5C573.1,417.5 603.2,407.5 549.4,412.5C551.1,384.8 547.7,389.7 549.4,370.0" stroke="#000000" fill="#ffffff" style="stroke-width: 2;"></path><text x="559.390625" y="394" style="font-size: 16px; font-family: danielbd;"><tspan x="559.390625">Contact ctr</tspan></text></g><path d="M612.3,95.0C623.3,297.1 601.3,206.9 612.3,370.0" stroke="#000000" fill="none" style="stroke-width: 2;"></path><g class="signal"><text x="63.8515625" y="122.75" style="font-size: 16px; font-family: danielbd;"><tspan x="63.8515625">a:link #/contact</tspan></text><path d="M53.9,137.5C78.8,131.3 138.9,143.7 209.9,137.5" stroke="#000000" fill="none" style="stroke-width: 2; marker-end: url(&quot;#markerArrowBlock&quot;);"></path></g><g class="signal"><text x="219.8515625" y="165.25" style="font-size: 16px; font-family: danielbd;"><tspan x="219.8515625">.load() partial/contact.html</tspan></text><path d="M209.9,180.0C345.1,190.0 399.6,170.0 459.6,180.0" stroke="#000000" fill="none" style="stroke-width: 2; marker-end: url(&quot;#markerArrowBlock&quot;);"></path></g><g class="signal"><text x="298.140625" y="207.75" style="font-size: 16px; font-family: danielbd;"><tspan x="298.140625">.load() contactController.js</tspan></text><path d="M209.9,222.5C360.7,206.4 306.4,238.6 612.3,222.5" stroke="#000000" fill="none" style="stroke-width: 2; marker-end: url(&quot;#markerArrowBlock&quot;);"></path></g><g class="signal"><text x="186.2265625" y="250.25" style="font-size: 16px; font-family: danielbd;"><tspan x="186.2265625">Escribe en input</tspan></text><path d="M53.9,265.0C394.7,281.2 275.8,248.8 459.6,265.0" stroke="#000000" fill="none" style="stroke-width: 2; marker-end: url(&quot;#markerArrowBlock&quot;);"></path></g><g class="signal"><text x="475.28125" y="292.75" style="font-size: 16px; font-family: danielbd;"><tspan x="475.28125">validateFields()</tspan></text><path d="M459.6,307.5C580.8,313.6 565.1,301.4 612.3,307.5" stroke="#000000" fill="none" style="stroke-width: 2; stroke-dasharray: 6, 2; marker-end: url(&quot;#markerArrowBlock&quot;);"></path></g><g class="signal"><text x="469.5859375" y="335.25" style="font-size: 16px; font-family: danielbd;"><tspan x="469.5859375">showValidation()</tspan></text><path d="M612.3,350.0C575.7,343.9 502.8,356.1 459.6,350.0" stroke="#000000" fill="none" style="stroke-width: 2; marker-end: url(&quot;#markerArrowBlock&quot;);"></path></g></svg>