<?xml version="1.0" encoding="utf-8" standalone="no"?><!DOCTYPE svg PUBLIC "-//W3C//DTD SVG 20010904//EN" "http://www.w3.org/TR/2001/REC-SVG-20010904/DTD/svg10.dtd"><svg xmlns="http://www.w3.org/2000/svg" width="914" height="857" xmlns:xlink="http://www.w3.org/1999/xlink"><source><![CDATA[Title: Personajes
participant Usuario
participant Router
participant Layout
participant People ctr
participant API
Usuario->Router: a:link #/people
Router->Layout: .load() partial/people.html
Router->People ctr: .load() peopleController.js
People ctr->API: GET /people
API-->People ctr: data.json
People ctr->LS: getItem(peopleList)
LS-->People ctr: people array
People ctr->Layout: load people table
Usuario->Layout: click add button
Layout->People ctr: push(item)
People ctr->LS: setItem(peopleList)
People ctr->Layout: removeItem()
Usuario->Layout: click showMore button
People ctr->API: GET /people
API-->People ctr: data.json
People ctr->Layout: load more people table]]></source><desc>Personajes</desc><defs><marker viewBox="0 0 5 5" markerWidth="5" markerHeight="5" orient="auto" refX="5" refY="2.5" id="markerArrowBlock"><path d="M 0 0 L 5 2.5 L 0 5 z"></path></marker><marker viewBox="0 0 9.6 16" markerWidth="4" markerHeight="16" orient="auto" refX="9.6" refY="8" id="markerArrowOpen"><path d="M 9.6,8 1.92,16 0,13.7 5.76,8 0,2.286 1.92,0 9.6,8 z"></path></marker></defs><g class="title"><path d="M10,10C91.3,6.1 43.2,13.9 106.8,10.0C108.1,34.7 105.5,36.1 106.8,42.5C52.8,38.6 25.5,46.4 10.0,42.5C8.7,21.1 11.3,35.4 10.0,10.0" stroke="#000000" fill="#ffffff" style="stroke-width: 2;"></path><text x="15" y="29" style="font-size: 16px; font-family: danielbd;"><tspan x="15">Personajes</tspan></text></g><g class="actor"><path d="M10,52.5C27.7,49.0 53.6,56.0 97.7,52.5C99.4,88.2 96.0,84.8 97.7,95.0C30.2,91.5 83.7,98.5 10.0,95.0C8.3,71.5 11.7,68.9 10.0,52.5" stroke="#000000" fill="#ffffff" style="stroke-width: 2;"></path><text x="20" y="76.5" style="font-size: 16px; font-family: danielbd;"><tspan x="20">Usuario</tspan></text></g><g class="actor"><path d="M10,795C24.0,798.5 31.0,791.5 97.7,795.0C99.4,801.8 96.0,805.2 97.7,837.5C39.6,841.0 31.0,834.0 10.0,837.5C8.3,830.7 11.7,801.8 10.0,795.0" stroke="#000000" fill="#ffffff" style="stroke-width: 2;"></path><text x="20" y="819" style="font-size: 16px; font-family: danielbd;"><tspan x="20">Usuario</tspan></text></g><path d="M53.9,95.0C81.9,267.9 25.9,263.0 53.9,795.0" stroke="#000000" fill="none" style="stroke-width: 2;"></path><g class="actor"><path d="M159.234375,52.5C181.5,49.2 178.7,55.8 240.5,52.5C238.8,62.7 242.2,60.1 240.5,95.0C208.4,91.7 204.6,98.3 159.2,95.0C160.9,75.6 157.5,83.3 159.2,52.5" stroke="#000000" fill="#ffffff" style="stroke-width: 2;"></path><text x="169.234375" y="76.5" style="font-size: 16px; font-family: danielbd;"><tspan x="169.234375">Router</tspan></text></g><g class="actor"><path d="M159.234375,795C219.9,798.3 194.8,791.7 240.5,795.0C238.8,801.8 242.2,805.2 240.5,837.5C193.0,840.8 185.2,834.2 159.2,837.5C157.5,818.0 160.9,810.9 159.2,795.0" stroke="#000000" fill="#ffffff" style="stroke-width: 2;"></path><text x="169.234375" y="819" style="font-size: 16px; font-family: danielbd;"><tspan x="169.234375">Router</tspan></text></g><path d="M199.9,95.0C227.9,414.9 171.9,401.4 199.9,795.0" stroke="#000000" fill="none" style="stroke-width: 2;"></path><g class="actor"><path d="M399.078125,52.5C469.1,49.2 428.0,55.8 482.4,52.5C480.7,64.2 484.1,81.0 482.4,95.0C446.3,98.3 412.4,91.7 399.1,95.0C397.4,84.8 400.8,69.4 399.1,52.5" stroke="#000000" fill="#ffffff" style="stroke-width: 2;"></path><text x="409.078125" y="76.5" style="font-size: 16px; font-family: danielbd;"><tspan x="409.078125">Layout</tspan></text></g><g class="actor"><path d="M399.078125,795C461.2,791.7 412.4,798.3 482.4,795.0C480.7,805.2 484.1,817.3 482.4,837.5C433.7,840.8 462.4,834.2 399.1,837.5C397.4,829.4 400.8,804.2 399.1,795.0" stroke="#000000" fill="#ffffff" style="stroke-width: 2;"></path><text x="409.078125" y="819" style="font-size: 16px; font-family: danielbd;"><tspan x="409.078125">Layout</tspan></text></g><path d="M440.7,95.0C412.7,236.8 468.7,683.0 440.7,795.0" stroke="#000000" fill="none" style="stroke-width: 2;"></path><g class="actor"><path d="M601.8984375,52.5C622.1,48.1 656.3,56.9 710.8,52.5C709.1,81.8 712.5,84.8 710.8,95.0C652.1,99.4 656.4,90.6 601.9,95.0C600.2,86.2 603.6,65.1 601.9,52.5" stroke="#000000" fill="#ffffff" style="stroke-width: 2;"></path><text x="611.8984375" y="76.5" style="font-size: 16px; font-family: danielbd;"><tspan x="611.8984375">People ctr</tspan></text></g><g class="actor"><path d="M601.8984375,795C688.3,790.6 674.7,799.4 710.8,795.0C712.5,801.8 709.1,830.7 710.8,837.5C684.7,833.1 628.0,841.9 601.9,837.5C603.6,806.8 600.2,805.2 601.9,795.0" stroke="#000000" fill="#ffffff" style="stroke-width: 2;"></path><text x="611.8984375" y="819" style="font-size: 16px; font-family: danielbd;"><tspan x="611.8984375">People ctr</tspan></text></g><path d="M656.4,95.0C684.4,211.1 628.4,480.2 656.4,795.0" stroke="#000000" fill="none" style="stroke-width: 2;"></path><g class="actor"><path d="M770.953125,52.5C789.0,50.6 794.8,54.4 818.8,52.5C820.5,84.8 817.0,84.8 818.8,95.0C792.3,93.1 811.1,96.9 771.0,95.0C769.3,84.8 772.7,86.6 771.0,52.5" stroke="#000000" fill="#ffffff" style="stroke-width: 2;"></path><text x="780.953125" y="76.5" style="font-size: 16px; font-family: danielbd;"><tspan x="780.953125">API</tspan></text></g><g class="actor"><path d="M770.953125,795C790.1,796.9 800.7,793.1 818.8,795.0C817.0,826.6 820.5,827.3 818.8,837.5C806.5,835.6 785.4,839.4 771.0,837.5C769.3,824.4 772.7,810.3 771.0,795.0" stroke="#000000" fill="#ffffff" style="stroke-width: 2;"></path><text x="780.953125" y="819" style="font-size: 16px; font-family: danielbd;"><tspan x="780.953125">API</tspan></text></g><path d="M794.9,95.0C766.9,449.5 822.9,538.1 794.9,795.0" stroke="#000000" fill="none" style="stroke-width: 2;"></path><g class="actor"><path d="M838.75,52.5C846.0,54.3 876.8,50.7 884.3,52.5C886.0,73.9 882.6,66.3 884.3,95.0C847.9,96.8 860.9,93.2 838.8,95.0C837.0,84.8 840.5,74.7 838.8,52.5" stroke="#000000" fill="#ffffff" style="stroke-width: 2;"></path><text x="848.75" y="76.5" style="font-size: 16px; font-family: danielbd;"><tspan x="848.75">LS</tspan></text></g><g class="actor"><path d="M838.75,795C869.0,793.2 873.4,796.8 884.3,795.0C882.6,802.6 886.0,808.8 884.3,837.5C863.0,839.3 872.7,835.7 838.8,837.5C837.0,823.9 840.5,826.7 838.8,795.0" stroke="#000000" fill="#ffffff" style="stroke-width: 2;"></path><text x="848.75" y="819" style="font-size: 16px; font-family: danielbd;"><tspan x="848.75">LS</tspan></text></g><path d="M861.5,95.0C833.5,263.0 889.5,603.2 861.5,795.0" stroke="#000000" fill="none" style="stroke-width: 2;"></path><g class="signal"><text x="63.8515625" y="122.75" style="font-size: 16px; font-family: danielbd;"><tspan x="63.8515625">a:link #/people</tspan></text><path d="M53.9,137.5C176.5,143.3 89.4,131.7 199.9,137.5" stroke="#000000" fill="none" style="stroke-width: 2; marker-end: url(&quot;#markerArrowBlock&quot;);"></path></g><g class="signal"><text x="209.8671875" y="165.25" style="font-size: 16px; font-family: danielbd;"><tspan x="209.8671875">.load() partial/people.html</tspan></text><path d="M199.9,180.0C257.7,170.4 275.4,189.6 440.7,180.0" stroke="#000000" fill="none" style="stroke-width: 2; marker-end: url(&quot;#markerArrowBlock&quot;);"></path></g><g class="signal"><text x="319.609375" y="207.75" style="font-size: 16px; font-family: danielbd;"><tspan x="319.609375">.load() peopleController.js</tspan></text><path d="M199.9,222.5C343.3,240.8 583.3,204.2 656.4,222.5" stroke="#000000" fill="none" style="stroke-width: 2; marker-end: url(&quot;#markerArrowBlock&quot;);"></path></g><g class="signal"><text x="666.3671875" y="250.25" style="font-size: 16px; font-family: danielbd;"><tspan x="666.3671875">GET /people</tspan></text><path d="M656.4,265.0C709.3,270.5 761.6,259.5 794.9,265.0" stroke="#000000" fill="none" style="stroke-width: 2; marker-end: url(&quot;#markerArrowBlock&quot;);"></path></g><g class="signal"><text x="689.1015625" y="292.75" style="font-size: 16px; font-family: danielbd;"><tspan x="689.1015625">data.json</tspan></text><path d="M794.9,307.5C694.0,313.0 729.8,302.0 656.4,307.5" stroke="#000000" fill="none" style="stroke-width: 2; stroke-dasharray: 6, 2; marker-end: url(&quot;#markerArrowBlock&quot;);"></path></g><g class="signal"><text x="680.66796875" y="335.25" style="font-size: 16px; font-family: danielbd;"><tspan x="676.60546875">getItem(peopleList)</tspan></text><path d="M656.4,350.0C707.8,358.2 812.3,341.8 861.5,350.0" stroke="#000000" fill="none" style="stroke-width: 2; marker-end: url(&quot;#markerArrowBlock&quot;);"></path></g><g class="signal"><text x="704.81640625" y="377.75" style="font-size: 16px; font-family: danielbd;"><tspan x="704.81640625">people array</tspan></text><path d="M861.5,392.5C715.5,400.7 699.3,384.3 656.4,392.5" stroke="#000000" fill="none" style="stroke-width: 2; stroke-dasharray: 6, 2; marker-end: url(&quot;#markerArrowBlock&quot;);"></path></g><g class="signal"><text x="476.9140625" y="420.25" style="font-size: 16px; font-family: danielbd;"><tspan x="476.9140625">load people table</tspan></text><path d="M656.4,435.0C478.8,426.4 621.9,443.6 440.7,435.0" stroke="#000000" fill="none" style="stroke-width: 2; marker-end: url(&quot;#markerArrowBlock&quot;);"></path></g><g class="signal"><text x="177.1328125" y="462.75" style="font-size: 16px; font-family: danielbd;"><tspan x="177.1328125">click add button</tspan></text><path d="M53.9,477.5C345.6,462.0 368.6,493.0 440.7,477.5" stroke="#000000" fill="none" style="stroke-width: 2; marker-end: url(&quot;#markerArrowBlock&quot;);"></path></g><g class="signal"><text x="504.1328125" y="505.25" style="font-size: 16px; font-family: danielbd;"><tspan x="504.1328125">push(item)</tspan></text><path d="M440.7,520.0C621.9,511.4 568.9,528.6 656.4,520.0" stroke="#000000" fill="none" style="stroke-width: 2; marker-end: url(&quot;#markerArrowBlock&quot;);"></path></g><g class="signal"><text x="678.65234375" y="547.75" style="font-size: 16px; font-family: danielbd;"><tspan x="678.65234375">setItem(peopleList)</tspan></text><path d="M656.4,562.5C777.1,554.3 737.9,570.7 861.5,562.5" stroke="#000000" fill="none" style="stroke-width: 2; marker-end: url(&quot;#markerArrowBlock&quot;);"></path></g><g class="signal"><text x="493.875" y="590.25" style="font-size: 16px; font-family: danielbd;"><tspan x="493.875">removeItem()</tspan></text><path d="M656.4,605.0C604.6,596.4 539.4,613.6 440.7,605.0" stroke="#000000" fill="none" style="stroke-width: 2; marker-end: url(&quot;#markerArrowBlock&quot;);"></path></g><g class="signal"><text x="149.8359375" y="632.75" style="font-size: 16px; font-family: danielbd;"><tspan x="149.8359375">click showMore button</tspan></text><path d="M53.9,647.5C196.0,632.0 250.7,663.0 440.7,647.5" stroke="#000000" fill="none" style="stroke-width: 2; marker-end: url(&quot;#markerArrowBlock&quot;);"></path></g><g class="signal"><text x="666.3671875" y="675.25" style="font-size: 16px; font-family: danielbd;"><tspan x="666.3671875">GET /people</tspan></text><path d="M656.4,690.0C772.7,695.5 761.6,684.5 794.9,690.0" stroke="#000000" fill="none" style="stroke-width: 2; marker-end: url(&quot;#markerArrowBlock&quot;);"></path></g><g class="signal"><text x="689.1015625" y="717.75" style="font-size: 16px; font-family: danielbd;"><tspan x="689.1015625">data.json</tspan></text><path d="M794.9,732.5C740.0,727.0 761.6,738.0 656.4,732.5" stroke="#000000" fill="none" style="stroke-width: 2; stroke-dasharray: 6, 2; marker-end: url(&quot;#markerArrowBlock&quot;);"></path></g><g class="signal"><text x="450.7421875" y="760.25" style="font-size: 16px; font-family: danielbd;"><tspan x="450.7421875">load more people table</tspan></text><path d="M656.4,775.0C492.5,783.6 604.6,766.4 440.7,775.0" stroke="#000000" fill="none" style="stroke-width: 2; marker-end: url(&quot;#markerArrowBlock&quot;);"></path></g></svg>