<?xml version="1.0" encoding="utf-8" standalone="no"?><!DOCTYPE svg PUBLIC "-//W3C//DTD SVG 20010904//EN" "http://www.w3.org/TR/2001/REC-SVG-20010904/DTD/svg10.dtd"><svg xmlns="http://www.w3.org/2000/svg" width="880" height="697" xmlns:xlink="http://www.w3.org/1999/xlink"><source><![CDATA[Title: Baja estudiante
participant Usuario
participant Formulario
participant App
App->LocalStorage: Pide datos iniciales
LocalStorage-->App: Recibe datos si los hay
App->Lista HTML: Carga la lista en el HTML
Usuario->Formulario: Ingresa DNI
Formulario->App: Busca DNI
App-->Formulario: Avísa si hay DNI
Note over Formulario: Habilita botón
Formulario-->Usuario: Muestra validación
Usuario->Formulario: Apreta botón eliminar
Formulario->App: Envía DNI
App->Lista HTML: Elimna el nodo
App->LocalStorage: Actualiza los cambios]]></source><desc>Baja estudiante</desc><defs><marker viewBox="0 0 5 5" markerWidth="5" markerHeight="5" orient="auto" refX="5" refY="2.5" id="markerArrowBlock"><path d="M 0 0 L 5 2.5 L 0 5 z"></path></marker><marker viewBox="0 0 9.6 16" markerWidth="4" markerHeight="16" orient="auto" refX="9.6" refY="8" id="markerArrowOpen"><path d="M 9.6,8 1.92,16 0,13.7 5.76,8 0,2.286 1.92,0 9.6,8 z"></path></marker></defs><g class="title"><path d="M10,10C118.3,15.7 65.8,4.3 152.5,10.0C153.8,22.3 151.2,36.6 152.5,42.5C48.0,36.8 129.7,48.2 10.0,42.5C11.3,18.4 8.7,31.0 10.0,10.0" stroke="#000000" fill="#ffffff" style="stroke-width: 2;"></path><text x="15" y="29" style="font-size: 16px; font-family: danielbd;"><tspan x="15">Baja estudiante</tspan></text></g><g class="actor"><path d="M10,52.5C66.9,49.0 70.8,56.0 97.7,52.5C99.4,81.8 96.0,69.8 97.7,95.0C77.5,91.5 24.0,98.5 10.0,95.0C11.7,81.5 8.3,67.1 10.0,52.5" stroke="#000000" fill="#ffffff" style="stroke-width: 2;"></path><text x="20" y="76.5" style="font-size: 16px; font-family: danielbd;"><tspan x="20">Usuario</tspan></text></g><g class="actor"><path d="M10,635C31.0,638.5 46.1,631.5 97.7,635.0C96.0,663.0 99.4,653.5 97.7,677.5C24.0,681.0 83.7,674.0 10.0,677.5C11.7,641.8 8.3,658.3 10.0,635.0" stroke="#000000" fill="#ffffff" style="stroke-width: 2;"></path><text x="20" y="659" style="font-size: 16px; font-family: danielbd;"><tspan x="20">Usuario</tspan></text></g><path d="M53.9,95.0C32.3,224.6 75.5,505.4 53.9,635.0" stroke="#000000" fill="none" style="stroke-width: 2;"></path><g class="actor"><path d="M202.2578125,52.5C220.5,47.9 271.1,57.1 316.6,52.5C318.3,84.1 314.9,88.2 316.6,95.0C245.0,90.4 229.7,99.6 202.3,95.0C204.0,59.3 200.6,69.8 202.3,52.5" stroke="#000000" fill="#ffffff" style="stroke-width: 2;"></path><text x="212.2578125" y="76.5" style="font-size: 16px; font-family: danielbd;"><tspan x="212.2578125">Formulario</tspan></text></g><g class="actor"><path d="M202.2578125,635C282.6,630.4 252.7,639.6 316.6,635.0C314.9,667.3 318.3,645.2 316.6,677.5C231.6,672.9 265.6,682.1 202.3,677.5C200.6,658.8 204.0,652.3 202.3,635.0" stroke="#000000" fill="#ffffff" style="stroke-width: 2;"></path><text x="212.2578125" y="659" style="font-size: 16px; font-family: danielbd;"><tspan x="212.2578125">Formulario</tspan></text></g><path d="M259.4,95.0C281.0,505.4 237.8,224.6 259.4,635.0" stroke="#000000" fill="none" style="stroke-width: 2;"></path><g class="actor"><path d="M395.65625,52.5C408.9,54.7 437.8,50.3 451.0,52.5C452.7,69.3 449.3,77.5 451.0,95.0C437.8,92.8 430.1,97.2 395.7,95.0C397.4,77.0 394.0,78.1 395.7,52.5" stroke="#000000" fill="#ffffff" style="stroke-width: 2;"></path><text x="405.65625" y="76.5" style="font-size: 16px; font-family: danielbd;"><tspan x="405.65625">App</tspan></text></g><g class="actor"><path d="M395.65625,635C408.9,637.2 428.4,632.8 451.0,635.0C452.7,641.8 449.3,651.9 451.0,677.5C422.4,675.3 437.2,679.7 395.7,677.5C394.0,650.3 397.4,659.1 395.7,635.0" stroke="#000000" fill="#ffffff" style="stroke-width: 2;"></path><text x="405.65625" y="659" style="font-size: 16px; font-family: danielbd;"><tspan x="405.65625">App</tspan></text></g><path d="M423.4,95.0C445.0,360.7 401.8,181.4 423.4,635.0" stroke="#000000" fill="none" style="stroke-width: 2;"></path><g class="actor"><path d="M572.6015625,52.5C668.9,47.3 665.3,57.7 703.2,52.5C701.5,62.7 704.9,81.9 703.2,95.0C599.6,89.8 608.0,100.2 572.6,95.0C570.9,74.8 574.3,84.8 572.6,52.5" stroke="#000000" fill="#ffffff" style="stroke-width: 2;"></path><text x="582.6015625" y="76.5" style="font-size: 16px; font-family: danielbd;"><tspan x="582.6015625">LocalStorage</tspan></text></g><g class="actor"><path d="M572.6015625,635C615.0,629.8 634.2,640.2 703.2,635.0C704.9,656.8 701.5,641.8 703.2,677.5C671.8,682.7 603.9,672.3 572.6,677.5C570.9,645.2 574.3,655.3 572.6,635.0" stroke="#000000" fill="#ffffff" style="stroke-width: 2;"></path><text x="582.6015625" y="659" style="font-size: 16px; font-family: danielbd;"><tspan x="582.6015625">LocalStorage</tspan></text></g><path d="M637.9,95.0C616.3,548.6 659.5,390.2 637.9,635.0" stroke="#000000" fill="none" style="stroke-width: 2;"></path><g class="actor"><path d="M723.1640625,52.5C761.4,47.4 819.9,57.6 850.4,52.5C848.7,77.2 852.1,59.3 850.4,95.0C825.9,89.9 743.5,100.1 723.2,95.0C721.5,74.9 724.9,88.2 723.2,52.5" stroke="#000000" fill="#ffffff" style="stroke-width: 2;"></path><text x="733.1640625" y="76.5" style="font-size: 16px; font-family: danielbd;"><tspan x="733.1640625">Lista HTML</tspan></text></g><g class="actor"><path d="M723.1640625,635C753.7,640.1 802.8,629.9 850.4,635.0C848.7,645.2 852.1,654.1 850.4,677.5C804.1,672.4 759.0,682.6 723.2,677.5C721.5,641.8 724.9,645.2 723.2,635.0" stroke="#000000" fill="#ffffff" style="stroke-width: 2;"></path><text x="733.1640625" y="659" style="font-size: 16px; font-family: danielbd;"><tspan x="733.1640625">Lista HTML</tspan></text></g><path d="M786.8,95.0C808.4,224.6 765.2,492.9 786.8,635.0" stroke="#000000" fill="none" style="stroke-width: 2;"></path><g class="signal"><text x="452.765625" y="122.75" style="font-size: 16px; font-family: danielbd;"><tspan x="452.765625">Pide datos iniciales</tspan></text><path d="M423.4,137.5C578.2,128.9 563.8,146.1 637.9,137.5" stroke="#000000" fill="none" style="stroke-width: 2; marker-end: url(&quot;#markerArrowBlock&quot;);"></path></g><g class="signal"><text x="433.3515625" y="165.25" style="font-size: 16px; font-family: danielbd;"><tspan x="433.3515625">Recibe datos si los hay</tspan></text><path d="M637.9,180.0C562.8,188.6 586.4,171.4 423.4,180.0" stroke="#000000" fill="none" style="stroke-width: 2; stroke-dasharray: 6, 2; marker-end: url(&quot;#markerArrowBlock&quot;);"></path></g><g class="signal"><text x="492.80859375" y="207.75" style="font-size: 16px; font-family: danielbd;"><tspan x="492.80859375">Carga la lista en el HTML</tspan></text><path d="M423.4,222.5C522.8,237.0 581.5,208.0 786.8,222.5" stroke="#000000" fill="none" style="stroke-width: 2; marker-end: url(&quot;#markerArrowBlock&quot;);"></path></g><g class="signal"><text x="107.578125" y="250.25" style="font-size: 16px; font-family: danielbd;"><tspan x="107.578125">Ingresa DNI</tspan></text><path d="M53.9,265.0C226.5,273.2 120.7,256.8 259.4,265.0" stroke="#000000" fill="none" style="stroke-width: 2; marker-end: url(&quot;#markerArrowBlock&quot;);"></path></g><g class="signal"><text x="293.9609375" y="292.75" style="font-size: 16px; font-family: danielbd;"><tspan x="293.9609375">Busca DNI</tspan></text><path d="M259.4,307.5C312.7,300.9 285.6,314.1 423.4,307.5" stroke="#000000" fill="none" style="stroke-width: 2; marker-end: url(&quot;#markerArrowBlock&quot;);"></path></g><g class="signal"><text x="269.4140625" y="335.25" style="font-size: 16px; font-family: danielbd;"><tspan x="269.4140625">Avísa si hay DNI</tspan></text><path d="M423.4,350.0C318.5,343.4 285.6,356.6 259.4,350.0" stroke="#000000" fill="none" style="stroke-width: 2; stroke-dasharray: 6, 2; marker-end: url(&quot;#markerArrowBlock&quot;);"></path></g><g class="note"><path d="M197.640625,370C242.9,374.9 217.4,365.1 321.2,370.0C319.9,394.7 322.5,397.3 321.2,402.5C254.9,407.4 291.5,397.6 197.6,402.5C196.3,394.7 198.9,386.3 197.6,370.0" stroke="#000000" fill="#ffffff" style="stroke-width: 2;"></path><text x="202.640625" y="389" style="font-size: 16px; font-family: danielbd;"><tspan x="202.640625">Habilita botón</tspan></text></g><g class="signal"><text x="79.40625" y="430.25" style="font-size: 16px; font-family: danielbd;"><tspan x="79.40625">Muestra validación</tspan></text><path d="M259.4,445.0C222.3,453.2 201.6,436.8 53.9,445.0" stroke="#000000" fill="none" style="stroke-width: 2; stroke-dasharray: 6, 2; marker-end: url(&quot;#markerArrowBlock&quot;);"></path></g><g class="signal"><text x="63.8515625" y="472.75" style="font-size: 16px; font-family: danielbd;"><tspan x="63.8515625">Apreta botón eliminar</tspan></text><path d="M53.9,487.5C153.3,495.7 178.5,479.3 259.4,487.5" stroke="#000000" fill="none" style="stroke-width: 2; marker-end: url(&quot;#markerArrowBlock&quot;);"></path></g><g class="signal"><text x="296.640625" y="515.25" style="font-size: 16px; font-family: danielbd;"><tspan x="296.640625">Envía DNI</tspan></text><path d="M259.4,530.0C285.6,523.4 397.1,536.6 423.4,530.0" stroke="#000000" fill="none" style="stroke-width: 2; marker-end: url(&quot;#markerArrowBlock&quot;);"></path></g><g class="signal"><text x="542.02734375" y="557.75" style="font-size: 16px; font-family: danielbd;"><tspan x="542.02734375">Elimna el nodo</tspan></text><path d="M423.4,572.5C523.8,558.0 510.6,587.0 786.8,572.5" stroke="#000000" fill="none" style="stroke-width: 2; marker-end: url(&quot;#markerArrowBlock&quot;);"></path></g><g class="signal"><text x="440.015625" y="600.25" style="font-size: 16px; font-family: danielbd;"><tspan x="440.015625">Actualiza los cambios</tspan></text><path d="M423.4,615.0C522.5,606.4 603.6,623.6 637.9,615.0" stroke="#000000" fill="none" style="stroke-width: 2; marker-end: url(&quot;#markerArrowBlock&quot;);"></path></g></svg>